HIERARCHY
ROOT Hips
{
	OFFSET -0.179506 -22.333345 2.821913
	CHANNELS 6 Xposition Yposition Zposition Zrotation Yrotation Xrotation 
	JOINT LeftUpLeg
	{
		OFFSET 6.951974 -9.140623 -0.681533
		CHANNELS 3 Zrotation Yrotation Xrotation
		JOINT LeftLeg
		{
			OFFSET 3.427654 -37.519855 -0.449580
			CHANNELS 3 Zrotation Yrotation Xrotation
			JOINT LeftFoot
			{
				OFFSET -1.359570 -39.796059 -4.369333
				CHANNELS 3 Zrotation Yrotation Xrotation
				JOINT LeftToe
				{
					OFFSET 2.635814 -5.579078 11.928840
					CHANNELS 3 Zrotation Yrotation Xrotation
					End Site
					{
						OFFSET 0.000000 0.000000 0.000000
					}
				}
			}
		}
	}
	JOINT RightUpLeg
	{
		OFFSET -6.767048 -9.052170 -0.431982
		CHANNELS 3 Zrotation Yrotation Xrotation
		JOINT RightLeg
		{
			OFFSET -3.829005 -38.256897 -0.885003
			CHANNELS 3 Zrotation Yrotation Xrotation
			JOINT RightFoot
			{
				OFFSET 1.577377 -39.841461 -4.231180
				CHANNELS 3 Zrotation Yrotation Xrotation
				JOINT RightToe
				{
					OFFSET -2.537174 -4.814398 12.334795
					CHANNELS 3 Zrotation Yrotation Xrotation
					End Site
					{
						OFFSET 0.000000 0.000000 0.000000
					}
				}
			}
		}
	}
	JOINT Spine
	{
		OFFSET -0.253288 10.896323 -2.669631
		CHANNELS 3 Zrotation Yrotation Xrotation
		JOINT Spine1
		{
			OFFSET 0.548704 13.518043 0.109247
			CHANNELS 3 Zrotation Yrotation Xrotation
			JOINT Spine2
			{
				OFFSET 0.145701 5.292222 2.542457
				CHANNELS 3 Zrotation Yrotation Xrotation
				JOINT Neck
				{
					OFFSET -0.277840 21.387037 -4.285703
					CHANNELS 3 Zrotation Yrotation Xrotation
					JOINT Head
					{
						OFFSET 0.515184 6.496960 5.134897
						CHANNELS 3 Zrotation Yrotation Xrotation
						End Site
						{
							OFFSET 0.000000 0.000000 0.000000
						}
					}
				}
				JOINT LeftShoulder
				{
					OFFSET 7.884473 12.174932 -3.408961
					CHANNELS 3 Zrotation Yrotation Xrotation
					JOINT LeftArm
					{
						OFFSET 9.097692 3.046888 -0.886815
						CHANNELS 3 Zrotation Yrotation Xrotation
						JOINT LeftForeArm
						{
							OFFSET 25.961220 -1.277207 -2.745643
							CHANNELS 3 Zrotation Yrotation Xrotation
							JOINT LeftHand
							{
								OFFSET 24.923361 0.898606 -0.117091
								CHANNELS 3 Zrotation Yrotation Xrotation
								End Site
								{
									OFFSET 0.000000 0.000000 0.000000
								}
							}
						}
					}
				}
				JOINT RightShoulder
				{
					OFFSET -8.175920 11.883285 -3.861528
					CHANNELS 3 Zrotation Yrotation Xrotation
					JOINT RightArm
					{
						OFFSET -9.601238 3.255117 -0.914307
						CHANNELS 3 Zrotation Yrotation Xrotation
						JOINT RightForeArm
						{
							OFFSET -25.374195 -1.332924 -2.140099
							CHANNELS 3 Zrotation Yrotation Xrotation
							JOINT RightHand
							{
								OFFSET -25.529810 0.777228 -0.555919
								CHANNELS 3 Zrotation Yrotation Xrotation
								End Site
								{
									OFFSET 0.000000 0.000000 0.000000
								}
							}
						}
					}
				}
			}
		}
	}
}
MOTION
Frames: 12
Frame Time: 0.033333
-32.457428 25.387838 95.077484 167.064419 1.812056 87.912093 -0.352589 -0.566472 8.508378 1.098120 -6.535376 1.767594 2.087876 11.542266 -10.160945 nan nan nan -0.539930 0.370783 6.730296 0.173251 5.630120 -5.108362 10.728318 -2.848620 1.731411 nan nan nan -1.458057 1.939564 1.583490 3.728522 -1.922547 2.989698 2.561941 -0.730984 3.139822 6.682662 -4.895038 3.599549 8.912674 -3.519368 -6.501311 -14.315397 7.545644 6.578116 -46.044264 1.567050 17.211251 -45.383260 -68.744161 61.880694 -14.778932 -26.608317 -24.152092 13.063844 -8.510759 0.932078 45.054593 -6.437143 18.139662 38.659282 72.871153 62.174315 22.562970 12.215186 -7.737145 
-32.600426 25.277086 95.066582 167.244868 1.686463 88.064529 -0.670361 -0.872758 8.403641 1.241302 -6.560837 1.400072 2.150845 11.734367 -9.866099 nan nan nan -0.737841 0.477348 6.326630 0.170064 5.482781 -4.800181 10.764260 -2.997042 1.567547 nan nan nan -1.293507 1.857629 1.849059 3.647624 -1.864395 2.608244 2.436637 -0.671429 3.236565 6.698374 -4.615212 3.580139 8.728547 -3.217873 -6.489063 -14.145937 7.799928 6.526553 -45.198570 1.813480 17.347286 -48.653542 -69.228345 65.351420 -14.157791 -27.157825 -23.357124 12.879050 -8.848925 0.759380 44.475437 -6.775897 18.446698 43.108135 73.306783 67.409327 21.670600 12.413349 -6.122054 
-32.735104 25.213760 95.068375 167.662101 1.660616 88.263038 -0.832108 -1.179320 8.230226 1.386036 -6.610575 1.092242 2.161130 11.684905 -9.667747 nan nan nan -0.835253 0.546377 6.034542 0.218298 5.139436 -4.677179 10.833365 -3.091802 1.517881 nan nan nan -1.093652 1.748064 1.881179 3.628717 -2.016702 2.412424 2.349542 -0.658150 3.277647 6.597304 -4.490556 3.699772 8.561009 -2.938302 -6.544216 -14.066769 8.065991 6.523617 -44.446462 2.149025 17.346154 -51.777522 -69.818619 68.406208 -14.608401 -27.506171 -21.718790 12.560716 -9.107208 0.626590 43.835346 -7.129763 18.570927 48.121304 73.930024 72.302536 22.582182 12.804095 -6.616003 
-32.823071 25.186060 95.062561 168.206596 1.688235 88.505074 -0.858723 -1.464601 8.037646 1.504777 -6.701610 0.733401 2.151367 11.551839 -9.432605 nan nan nan -0.800363 0.560830 5.789012 0.242045 4.813539 -4.641711 10.861057 -3.300994 1.468073 nan nan nan -0.982068 1.634263 1.680346 3.688476 -2.295381 2.376665 2.296974 -0.665088 3.275948 6.417641 -4.444868 3.969064 8.483759 -2.792003 -6.835071 -13.853201 8.327041 6.594957 -43.688159 2.471581 17.235953 -55.401935 -70.428788 72.263387 -15.347324 -27.490069 -20.520814 12.245136 -9.338630 0.510395 43.181055 -7.508578 18.669884 53.644474 74.310104 78.030638 23.110942 13.002455 -6.969368 
-32.880970 25.171522 95.077858 168.517152 1.649058 88.586479 -0.893298 -1.498632 8.137399 1.556296 -6.859593 0.235077 2.068856 11.467617 -9.217115 nan nan nan -0.825012 0.588871 5.740970 0.241042 4.781595 -4.664854 10.909488 -3.592576 1.387916 nan nan nan -1.004718 1.583296 1.578957 3.731699 -2.354662 2.410290 2.346066 -0.706716 3.234550 6.228097 -4.330450 4.167613 8.333247 -2.612104 -7.067702 -13.586562 8.561540 6.721470 -42.876333 2.757973 17.146976 -59.705724 -70.916511 76.675884 -16.332262 -27.667023 -20.293859 11.972863 -9.601968 0.401338 42.629992 -7.910068 18.800932 58.803329 74.675836 83.150920 23.035267 13.270592 -7.036920 
-32.964211 25.188488 95.114586 168.658421 1.597090 88.411490 -0.936305 -1.329263 8.667725 1.589559 -7.132599 -0.456587 1.961645 11.388659 -9.001498 nan nan nan -0.939452 0.567234 5.967100 0.268675 4.929846 -4.694317 10.993301 -3.841190 1.392310 nan nan nan -0.942830 1.547612 1.648670 3.712632 -2.242254 2.548670 2.409752 -0.748491 3.247604 6.020031 -4.241780 4.224652 8.120273 -2.408183 -7.226347 -13.360654 8.708835 6.801951 -42.146751 3.000868 17.060870 -64.090478 -71.285885 81.009400 -17.694736 -27.910957 -20.659568 11.588093 -9.838162 0.309635 42.132261 -8.253882 18.863099 63.806048 74.967240 88.142807 23.342156 13.448731 -6.717303 
-33.090603 25.184196 95.160133 168.786844 1.522799 88.147184 -1.068128 -1.144302 9.254874 1.699047 -7.403068 -1.076489 1.894269 11.321036 -8.838806 nan nan nan -1.089895 0.569458 6.183463 0.260415 4.865534 -4.539217 11.168853 -3.906608 1.304887 nan nan nan -0.738121 1.472378 1.939056 3.602516 -2.136182 2.582395 2.365010 -0.748408 3.287295 5.900986 -4.157776 4.089225 7.881187 -2.291437 -7.190032 -13.183967 8.878202 6.757603 -41.316152 3.343840 16.970059 -67.952476 -71.366858 85.241971 -18.632185 -28.685679 -19.276757 11.224672 -9.941056 0.197592 41.582511 -8.645849 18.839701 68.737382 75.005192 93.108555 23.946179 13.955538 -6.278298 
-33.237881 25.142553 95.194984 168.965464 1.384461 88.141740 -1.338419 -1.167950 9.425052 1.813859 -7.563699 -1.499108 1.923419 11.324114 -8.640514 nan nan nan -1.329015 0.596317 6.019445 0.296087 4.705586 -4.223598 11.225967 -3.881802 1.132727 nan nan nan -0.617054 1.372842 2.025085 3.515060 -2.079307 2.571862 2.311896 -0.795551 3.284714 5.758061 -4.074181 4.065120 7.641429 -2.049591 -7.115922 -13.002574 9.173421 6.639838 -40.586075 3.663242 17.008078 -72.011216 -71.506517 89.275067 -20.318075 -28.973586 -18.250410 10.940064 -10.093011 0.129053 40.922629 -8.958136 19.061634 73.776485 74.947332 97.934080 25.967681 14.264518 -6.461416 
-33.359367 25.138103 95.200081 169.259663 1.267642 88.292360 -1.532208 -1.258879 9.414390 1.886211 -7.637436 -1.892702 1.925644 11.221436 -8.462362 nan nan nan -1.577035 0.510002 5.779049 0.400732 4.543093 -4.020793 11.185279 -3.881090 1.004023 nan nan nan -0.518178 1.325866 1.837150 3.460706 -2.081879 2.559845 2.244506 -0.904289 3.333053 5.638591 -3.938159 4.078018 7.435766 -1.809424 -6.977666 -12.777796 9.440956 6.609117 -39.788268 3.870387 17.105363 -76.491951 -71.590227 93.691681 -22.186112 -29.297704 -17.730841 10.667013 -10.359722 0.085124 40.280952 -9.182996 19.316578 78.872340 74.681615 102.962755 28.473933 14.585439 -6.682915 
-33.441353 25.203226 95.189354 169.671097 1.181582 88.142699 -1.620086 -1.192069 9.844545 1.959537 -7.950950 -2.456089 1.798534 11.131862 -8.291861 nan nan nan -1.756010 0.314946 6.053717 0.439445 4.432662 -4.039277 11.122551 -4.015198 0.906655 nan nan nan -0.360078 1.256457 1.945088 3.348690 -2.155554 2.575024 2.127977 -0.949738 3.350068 5.604373 -3.840193 4.049413 7.319022 -1.710635 -6.821672 -12.489796 9.591479 6.623468 -38.881099 4.139266 17.168864 -81.036715 -71.493916 98.467997 -22.549598 -29.684715 -17.399482 10.377185 -10.574612 -0.115780 39.720478 -9.403242 19.370493 83.730647 74.077392 108.552440 29.361560 14.774962 -6.108486 
-33.527069 25.239798 95.191208 170.060765 1.085722 87.890467 -1.758731 -1.106554 10.360426 2.116932 -8.364031 -3.019592 1.722790 11.148688 -8.026463 nan nan nan -1.915664 0.158114 6.433577 0.452938 4.383081 -4.083302 11.080250 -4.262922 0.832313 nan nan nan -0.175580 1.180537 2.220906 3.207181 -2.234691 2.560023 2.009334 -1.001873 3.349458 5.511404 -3.798777 4.190415 7.207529 -1.530603 -6.929886 -12.202478 9.669442 6.679436 -38.002908 4.410925 17.196759 -85.044363 -71.161100 102.659778 -21.808932 -29.589973 -16.916629 10.128739 -10.712391 -0.154058 39.355814 -9.804553 19.522024 87.671622 73.794213 112.286467 28.028867 14.890092 -5.640075 
-33.634472 25.222380 95.206764 170.320348 1.041712 88.032304 -1.914187 -1.142448 10.376003 2.306850 -8.506528 -3.489732 1.752082 11.158828 -7.749354 nan nan nan -2.028127 0.149792 6.235449 0.485951 4.287052 -4.001988 11.089439 -4.434780 0.844033 nan nan nan -0.040475 1.159394 1.991002 3.171024 -2.231619 2.677413 1.986084 -1.071627 3.302146 5.318545 -3.789571 4.459050 6.992940 -1.298065 -7.298388 -11.975446 9.757443 6.813178 -37.283066 4.555617 17.239755 -88.372198 -70.804887 106.290712 -21.634992 -29.568596 -16.361739 9.856854 -10.856825 -0.110755 38.695690 -9.874599 19.602993 91.698774 73.192140 116.562329 27.199030 15.187883 -5.654098 
